<svg id="Calque_1" data-name="Calque 1" xmlns="http://www.w3.org/2000/svg" viewBox="0 0 52.09 58.18"><defs><style>.cls-1{font-size:8px;font-family:Melodrama-Medium, Melodrama;font-weight:500;}.cls-1,.cls-2{fill:#fff;}.cls-2{stroke:#1d1d1b;stroke-miterlimit:10;stroke-width:0.13px;}</style></defs><text class="cls-1" transform="translate(15.94 18.13) rotate(-26.13)">e</text><text class="cls-1" transform="translate(20.1 16.25) rotate(-14.93)">i</text><text class="cls-1" transform="translate(21.38 15.8) rotate(-5.9)">k</text><text class="cls-1" transform="translate(24.39 15.34) rotate(7.61)">o</text><text class="cls-1" transform="matrix(0.92, 0.39, -0.39, 0.92, 28.87, 15.95)">n</text><text class="cls-1" transform="translate(32.24 17.32) rotate(36.85)">B</text><text class="cls-1" transform="matrix(0.69, 0.72, -0.72, 0.69, 35.23, 19.67)">i</text><text class="cls-1" transform="translate(36.31 20.49) rotate(58)">b</text><text class="cls-1" transform="matrix(0.35, 0.94, -0.94, 0.35, 38.75, 24.69)">l</text><text class="cls-1" transform="translate(39.27 26.06) rotate(75.25)">i</text><text class="cls-1" transform="translate(39.78 27.29) rotate(86.33)">o</text><text class="cls-1" transform="translate(36.15 40.04) rotate(153.87)">e</text><text class="cls-1" transform="translate(32 41.93) rotate(165.07)">i</text><text class="cls-1" transform="matrix(-0.99, 0.1, -0.1, -0.99, 30.71, 42.38)">k</text><text class="cls-1" transform="translate(27.71 42.84) rotate(-172.39)">o</text><text class="cls-1" transform="translate(23.22 42.23) rotate(-157.13)">n</text><text class="cls-1" transform="matrix(-0.8, -0.6, 0.6, -0.8, 19.85, 40.86)">B</text><text class="cls-1" transform="matrix(-0.69, -0.72, 0.72, -0.69, 16.86, 38.51)">i</text><text class="cls-1" transform="translate(15.78 37.69) rotate(-122)">b</text><text class="cls-1" transform="matrix(-0.35, -0.94, 0.94, -0.35, 13.34, 33.49)">l</text><text class="cls-1" transform="translate(12.83 32.11) rotate(-104.75)">i</text><text class="cls-1" transform="translate(12.31 30.88) rotate(-93.67)">o</text><circle class="cls-2" cx="13.36" cy="20.25" r="0.69"/><circle class="cls-2" cx="42.36" cy="34.55" r="0.69"/><circle class="cls-2" cx="26.09" cy="30.04" r="0.69"/></svg>